<svg width="31" height="31" viewBox="0 0 31 31" fill="none" xmlns="http://www.w3.org/2000/svg">
<rect x="0.359436" y="0.5" width="30" height="30" rx="15" fill="url(#paint0_linear_329_107)"/>
<path d="M10.6592 11.7753C10.6715 11.7904 11.5644 12.8873 12.1553 13.3095C12.7436 13.7294 13.9829 14.1598 14.0118 14.1698C14.0237 14.1978 15.1659 16.8833 14.7022 19.3026C14.2397 21.7139 12.3679 23.6209 12.336 23.6532C12.3036 23.6342 8.35968 21.3114 8.35944 17.4628C8.35961 13.6234 10.6298 11.7988 10.6592 11.7753ZM20.0596 11.7753C20.089 11.7988 22.3593 13.6234 22.3594 17.4628C22.3592 21.3114 18.4153 23.6342 18.3829 23.6532C18.351 23.6209 16.4792 21.7139 16.0167 19.3026C15.5529 16.8833 16.6951 14.1978 16.7071 14.1698C16.7359 14.1598 17.9753 13.7294 18.5635 13.3095C19.1545 12.8873 20.0474 11.7904 20.0596 11.7753ZM17.7139 7.82119C17.9515 7.48192 18.4196 7.39906 18.7589 7.63662C19.0979 7.87418 19.1798 8.34137 18.9424 8.68056L17.7266 10.4169C18.5165 10.6692 19.0547 10.9413 19.0547 10.9413C19.0407 10.9653 17.7278 13.203 15.5098 13.203C13.2972 13.2029 11.7196 11.1277 11.6954 11.0956C11.6954 11.0956 12.2577 10.7373 13.0909 10.4296L11.7667 8.85146C11.5005 8.53419 11.5422 8.06101 11.8594 7.79482C12.1767 7.52884 12.6499 7.57041 12.9161 7.88759L14.6085 9.90517C14.6424 9.94558 14.6714 9.98839 14.6954 10.0331C14.8943 10.0099 15.0971 9.99599 15.3018 9.99599C15.5889 9.996 15.8755 10.0193 16.1553 10.0565C16.1695 10.0299 16.1854 10.0038 16.2032 9.97841L17.7139 7.82119Z" fill="white"/>
<defs>
<linearGradient id="paint0_linear_329_107" x1="0.359436" y1="0.5" x2="0.359436" y2="30.5" gradientUnits="userSpaceOnUse">
<stop stop-color="#92BC2C"/>
<stop offset="1" stop-color="#AFC836"/>
</linearGradient>
</defs>
</svg>
