<svg width="31" height="31" viewBox="0 0 31 31" fill="none" xmlns="http://www.w3.org/2000/svg">
<rect x="0.899048" y="0.577148" width="30" height="30" rx="15" fill="url(#paint0_linear_329_108)"/>
<path d="M15.899 7.57715C20.3173 7.57715 23.899 11.1589 23.899 15.5771C23.899 19.9954 20.3173 23.5771 15.899 23.5771C11.4808 23.5771 7.89905 19.9954 7.89905 15.5771C7.89905 11.1589 11.4808 7.57715 15.899 7.57715ZM15.899 9.71094C15.9229 9.73402 18.1315 11.8778 18.1315 15.7637C18.1313 19.6704 15.899 21.4443 15.899 21.4443C15.899 21.4443 22.41 21.3447 22.2242 15.7637C22.0384 10.1894 15.9147 9.71215 15.899 9.71094Z" fill="white"/>
<defs>
<linearGradient id="paint0_linear_329_108" x1="1.09244" y1="0.577148" x2="1.09244" y2="30.1904" gradientUnits="userSpaceOnUse">
<stop stop-color="#595761"/>
<stop offset="1" stop-color="#6E7587"/>
</linearGradient>
</defs>
</svg>
