<svg width="31" height="31" viewBox="0 0 31 31" fill="none" xmlns="http://www.w3.org/2000/svg">
<rect x="0.399048" y="0.5" width="30" height="30" rx="15" fill="url(#paint0_linear_329_109)"/>
<path fill-rule="evenodd" clip-rule="evenodd" d="M16.1795 15.465C16.2879 15.3989 16.3799 15.2603 16.4541 15.1063C17.4305 15.5054 18.1167 16.4484 18.1167 17.5481C18.1167 19.0091 16.9057 20.1934 15.412 20.1934C14.7988 20.1934 14.4772 20.1406 13.9147 19.8398C13.5944 19.6338 13.5084 19.5193 13.4082 19.4639C13.2528 19.378 13.1509 19.3217 13.087 19.3305C12.9005 19.3562 12.9547 19.5278 13.0039 19.6837C13.0373 19.7896 13.0684 19.8883 13.0202 19.929C12.9698 19.9716 12.8064 19.8158 12.6155 19.6338C12.3557 19.386 12.0448 19.0896 11.8982 19.1787C11.7823 19.2491 11.8948 19.44 12.0325 19.6738L12.0428 19.6911C12.101 19.79 12.1684 19.8905 12.2299 19.9824C12.355 20.169 12.4558 20.3193 12.4053 20.3448C12.3444 20.3755 11.9199 20.089 11.5621 19.6911C11.424 19.5376 11.2902 19.3711 11.1659 19.2165C10.8938 18.8779 10.6671 18.5959 10.5399 18.6293C10.3868 18.6695 10.5026 18.9852 10.6728 19.2891C10.7523 19.4312 10.8459 19.5759 10.927 19.7011C11.053 19.896 11.1486 20.0438 11.1139 20.062C11.0671 20.0865 10.6552 19.6848 10.3755 19.1787C10.2093 18.878 10.0698 18.5458 9.9568 18.2768C9.83429 17.9851 9.74304 17.7678 9.68295 17.7459C9.47419 17.6699 9.47419 18.0956 9.55792 18.71C9.56884 18.7901 9.5851 18.8741 9.60513 18.9597C10.4171 21.587 12.9115 23.5 15.8628 23.5C19.4727 23.5 22.3991 20.6379 22.3991 17.1072C22.3991 13.7469 19.7481 10.9921 16.38 10.7342C16.3843 10.5759 16.4669 10.262 16.4669 10.262C16.4669 10.262 17.0615 8.82335 17.0929 8.51594C17.095 8.49553 17.0975 8.47336 17.1001 8.44975C17.1372 8.11759 17.2061 7.5 16.6748 7.5C16.391 7.5 16.2591 7.71108 16.1081 7.9525C16.0502 8.04518 15.9895 8.14233 15.9163 8.23372C15.3892 8.89199 14.5028 9.71403 14.0002 10.152C12.9379 11.0776 11.8956 11.8384 11.2878 12.2821C11.0113 12.4839 10.8247 12.6201 10.7669 12.6764C10.3317 13.1006 8.77134 15.9152 8.77134 15.9152C8.77134 15.9152 8.26673 16.8182 8.44609 17.0013C8.62545 17.1845 9.05797 17.1425 9.05797 17.1425C9.05797 17.1425 14.8686 15.8095 15.3888 15.7043C15.5289 15.676 15.6278 15.6597 15.7037 15.6472C15.9098 15.6131 15.9468 15.607 16.1795 15.465ZM12.0711 13.752C11.7592 14.0485 11.2419 14.7561 11.2419 14.7561C11.2419 14.7561 12.2033 14.8154 12.7328 14.3121C13.2623 13.8088 13.141 12.951 13.141 12.951C13.141 12.951 12.383 13.4555 12.0711 13.752Z" fill="white"/>
<defs>
<linearGradient id="paint0_linear_329_109" x1="0.592441" y1="0.5" x2="0.592441" y2="30.1132" gradientUnits="userSpaceOnUse">
<stop stop-color="#0C69C8"/>
<stop offset="1" stop-color="#0180C7"/>
</linearGradient>
</defs>
</svg>
