<svg width="30" height="31" viewBox="0 0 30 31" fill="none" xmlns="http://www.w3.org/2000/svg">
<rect x="-0.000305176" y="0.5" width="30" height="30" rx="15" fill="url(#paint0_linear_329_111)"/>
<path d="M14.7868 8.15232C14.8789 7.9843 15.1206 7.9843 15.2126 8.15232L17.0954 11.5967L19.2292 10.9785C19.4133 10.9251 19.584 11.0965 19.53 11.2802L18.8982 13.4131L22.3738 15.3135C22.5418 15.4055 22.5418 15.6472 22.3738 15.7392L18.9294 17.6211L19.53 19.6484C19.5844 19.8323 19.4134 20.0036 19.2292 19.9502L17.154 19.3476L15.2126 22.9004C15.1206 23.0684 14.8789 23.0684 14.7868 22.9004L12.8445 19.3476L10.7702 19.9502C10.5861 20.0036 10.4151 19.8323 10.4695 19.6484L11.0691 17.6211L7.62571 15.7392C7.45769 15.6472 7.45769 15.4055 7.62571 15.3135L11.1003 13.4131L10.4695 11.2802C10.4154 11.0965 10.5862 10.9251 10.7702 10.9785L12.9031 11.5967L14.7868 8.15232ZM15.2331 13.1914C15.1411 13.0231 14.8994 13.0231 14.8073 13.1914L14.0495 14.5761L12.6648 15.334C12.4965 15.426 12.4965 15.6677 12.6648 15.7597L14.0495 16.5166L14.8073 17.9023C14.8994 18.0704 15.1411 18.0704 15.2331 17.9023L15.99 16.5166L17.3757 15.7597C17.5438 15.6677 17.5437 15.426 17.3757 15.334L15.99 14.5761L15.2331 13.1914Z" fill="white"/>
<defs>
<linearGradient id="paint0_linear_329_111" x1="0.245911" y1="0.5" x2="0.245911" y2="30.0076" gradientUnits="userSpaceOnUse">
<stop stop-color="#EC8CE5"/>
<stop offset="1" stop-color="#F3A7E7"/>
</linearGradient>
</defs>
</svg>
