<svg width="31" height="31" viewBox="0 0 31 31" fill="none" xmlns="http://www.w3.org/2000/svg">
<rect x="0.539673" y="0.5" width="30" height="30" rx="15" fill="url(#paint0_linear_329_112)"/>
<path d="M12.2301 8.5C12.8126 8.5 13.324 8.80187 13.6188 9.25684C13.6645 9.25303 13.7107 9.25001 13.7574 9.25C13.8652 9.25 13.9709 9.26061 14.0729 9.28027C14.375 8.95469 14.8056 8.7501 15.2848 8.75C15.9658 8.75 16.5496 9.16212 16.8033 9.75C16.8063 9.74998 16.8092 9.75 16.8121 9.75C16.9295 9.75 17.0444 9.7619 17.1549 9.78516C17.4199 9.6048 17.7409 9.5 18.0856 9.5C18.8005 9.50019 19.4073 9.95467 19.6383 10.5898C19.7643 10.6329 19.8835 10.6902 19.9938 10.7607C20.2511 10.5959 20.5571 10.5 20.8854 10.5C21.799 10.5001 22.5395 11.2407 22.5397 12.1543V17.2061C22.5397 17.249 22.5371 17.2916 22.5338 17.334C22.4127 20.758 19.3289 23.5 15.5397 23.5C11.6737 23.5 8.53967 20.6458 8.53967 17.125C8.53967 15.4256 9.27039 13.8821 10.4606 12.7393C10.4576 14.3944 10.4852 16.1053 10.6139 16.0791C10.9585 16.0005 10.6896 10.8919 10.6256 9.75488C10.8045 9.03448 11.4544 8.50022 12.2301 8.5Z" fill="white"/>
<defs>
<linearGradient id="paint0_linear_329_112" x1="0.733066" y1="0.5" x2="0.733066" y2="30.1132" gradientUnits="userSpaceOnUse">
<stop stop-color="#CE4265"/>
<stop offset="1" stop-color="#E74347"/>
</linearGradient>
</defs>
</svg>
