<svg width="31" height="31" viewBox="0 0 31 31" fill="none" xmlns="http://www.w3.org/2000/svg">
<rect x="0.959991" y="0.5" width="30" height="30" rx="15" fill="url(#paint0_linear_329_113)"/>
<path d="M15.2935 8.5C15.3143 8.51837 16.6423 9.6989 17.0152 11.2197C17.391 12.7525 16.1467 14.8396 17.7086 14.7578C19.2703 14.676 17.9127 12.2676 17.9127 12.2676C17.9127 12.2676 21.4557 14.1299 21.191 17.3867C20.9272 20.6314 17.3454 21.3783 17.3189 21.3838C17.3309 21.3739 18.2627 20.6053 18.4449 19.9404C18.6279 19.2712 18.273 17.8945 18.273 17.8945C18.273 17.8945 18.0154 19.0152 17.6129 19.4297C17.2694 19.783 16.8482 20.0264 16.2447 20.0908C16.7378 19.851 17.0777 19.3528 17.0777 18.7754C17.0775 17.9648 16.4091 17.3079 15.5845 17.3076C14.7598 17.3076 14.0906 17.9647 14.0904 18.7754C14.0904 18.9963 14.1412 19.2056 14.2301 19.3936C13.7148 18.9825 13.6324 18.3252 13.6324 18.3252C13.6324 18.3252 13.0567 20.7176 14.6441 21.8428C16.2316 22.9677 19.3414 22.001 19.3414 22.001C19.3414 22.001 14.891 25.1316 11.5933 21.7236C8.75284 18.7879 10.8521 14.9229 10.8521 14.9229C10.8521 14.9229 10.7613 15.282 10.7613 15.6982C10.7614 16.1097 10.982 16.4237 10.9869 16.4307C10.9956 16.4123 11.6637 15.0078 12.1842 14.4346C13.0615 13.4684 14.3321 12.8249 14.8306 12.2676C16.02 10.9376 15.2994 8.51965 15.2935 8.5Z" fill="white"/>
<defs>
<linearGradient id="paint0_linear_329_113" x1="0.959991" y1="0.5" x2="0.959991" y2="30.5" gradientUnits="userSpaceOnUse">
<stop stop-color="#FB9B51"/>
<stop offset="1" stop-color="#FBAE46"/>
</linearGradient>
</defs>
</svg>
