<svg width="31" height="30" viewBox="0 0 31 30" fill="none" xmlns="http://www.w3.org/2000/svg">
<rect x="0.5" width="30" height="30" rx="15" fill="url(#paint0_linear_329_114)"/>
<path d="M13.628 11.7231C11.6353 11.9093 8.01132 13.3986 8.55491 17.494C9.09849 21.5895 12.1788 22.1766 14.8967 21.9618C17.6145 21.747 19.7891 18.2387 19.0641 18.7971C18.3392 19.3556 16.7087 19.1694 16.7087 19.1694C18.9539 17.996 19.7416 17.5305 20.5137 16.3771C18.5759 16.9577 17.8452 16.9973 16.7086 16.9356C20.8758 15.6325 21.53 14.1119 22.507 12.6539C18.9688 14.3246 17.7531 14.6565 16.5275 14.5155C22.0263 12.1076 23.4214 10.6608 24.5 8C19.8136 10.317 15.6207 11.537 13.628 11.7231Z" fill="white"/>
<defs>
<linearGradient id="paint0_linear_329_114" x1="0.5" y1="0" x2="0.5" y2="30" gradientUnits="userSpaceOnUse">
<stop stop-color="#90A7DA"/>
<stop offset="1" stop-color="#A6C2F2"/>
</linearGradient>
</defs>
</svg>
