<svg width="31" height="31" viewBox="0 0 31 31" fill="none" xmlns="http://www.w3.org/2000/svg">
<rect x="0.359436" y="0.792206" width="30" height="30" rx="15" fill="url(#paint0_linear_329_116)"/>
<path fill-rule="evenodd" clip-rule="evenodd" d="M15.5659 22.7052C15.4973 22.707 15.4285 22.708 15.3594 22.708C11.2173 22.708 7.85944 19.369 7.85944 15.2501C7.85944 11.1312 11.2173 7.79221 15.3594 7.79221C19.5016 7.79221 22.8594 11.1312 22.8594 15.2501C22.8594 17.3312 22.0022 19.2133 20.6196 20.5661C21.2245 20.7759 21.8401 20.9505 22.32 21.076C22.6358 21.1586 22.6851 21.5643 22.3849 21.692C21.1312 22.2253 18.5804 23.0653 15.5659 22.7052ZM14.3047 14.1853C14.3047 14.8158 13.7801 15.3269 13.1329 15.3269C12.4857 15.3269 11.961 14.8158 11.961 14.1853C11.961 13.7625 12.197 13.3933 12.5476 13.196C12.5678 13.7458 13.0224 14.1853 13.5802 14.1853H14.3047ZM17.3516 15.3269C16.7044 15.3269 16.1797 14.8158 16.1797 14.1853H16.9043C17.4621 14.1853 17.9167 13.7458 17.9369 13.196C18.2875 13.3933 18.5235 13.7625 18.5235 14.1853C18.5235 14.8158 17.9988 15.3269 17.3516 15.3269Z" fill="white"/>
<defs>
<linearGradient id="paint0_linear_329_116" x1="0.552829" y1="0.792206" x2="0.552829" y2="30.4054" gradientUnits="userSpaceOnUse">
<stop stop-color="#516AAC"/>
<stop offset="1" stop-color="#7773D4"/>
</linearGradient>
</defs>
</svg>
