<svg width="31" height="30" viewBox="0 0 31 30" fill="none" xmlns="http://www.w3.org/2000/svg">
<rect x="0.899048" width="30" height="30" rx="15" fill="url(#paint0_linear_329_117)"/>
<path d="M21.4828 8.72681C21.4828 8.72681 23.0445 17.1654 20.101 20.1089C17.5623 22.6475 14.5329 22.592 12.2062 20.9879L14.237 18.4917L17.8423 17.712L14.8986 17.4172L16.7692 15.5092L18.8988 15.0424L17.2153 14.5425L18.8988 11.5L16.504 14.1903L15.5787 12.8838L15.9047 15.0424L14.2363 16.9262L13.4629 14.5425V17.712L11.3609 20.3098C11.2901 20.244 11.2192 20.1778 11.1503 20.1089C8.7482 17.7067 8.84865 13.5384 11.6372 11.1451C14.4172 8.75919 21.4391 8.72699 21.4828 8.72681Z" fill="white"/>
<defs>
<linearGradient id="paint0_linear_329_117" x1="0.899048" y1="0" x2="0.899048" y2="30" gradientUnits="userSpaceOnUse">
<stop stop-color="#5FBC51"/>
<stop offset="1" stop-color="#5AC178"/>
</linearGradient>
</defs>
</svg>
