<svg width="31" height="30" viewBox="0 0 31 30" fill="none" xmlns="http://www.w3.org/2000/svg">
<rect x="0.399048" width="30" height="30" rx="15" fill="url(#paint0_linear_329_118)"/>
<path d="M12.9277 12.2871C13.0671 12.2871 13.1646 12.4256 13.1172 12.5566L10.4688 19.8672C10.4399 19.9467 10.3648 19.9999 10.2803 20H8.09668C7.95645 19.9999 7.85919 19.8599 7.9082 19.7285L10.6465 12.418C10.6759 12.3395 10.7512 12.2872 10.835 12.2871H12.9277ZM19.0215 9C19.1068 9.0002 19.1828 9.0542 19.2109 9.13477L22.8906 19.6895C22.9362 19.8201 22.8395 19.9569 22.7012 19.957H11.2676C11.2067 19.957 11.1644 19.8972 11.1846 19.8398L14.9727 9.13379C15.0011 9.05365 15.0771 9.00015 15.1621 9H19.0215Z" fill="white"/>
<defs>
<linearGradient id="paint0_linear_329_118" x1="0.592441" y1="0" x2="0.592441" y2="29.6132" gradientUnits="userSpaceOnUse">
<stop stop-color="#DC7545"/>
<stop offset="1" stop-color="#D29463"/>
</linearGradient>
</defs>
</svg>
