<svg width="31" height="30" viewBox="0 0 31 30" fill="none" xmlns="http://www.w3.org/2000/svg">
<rect x="0.499695" width="30" height="30" rx="15" fill="url(#paint0_linear_329_121)"/>
<path d="M15.4997 7.5C19.6418 7.5 22.9997 10.4642 22.9997 14.1201C22.9995 16.0663 22.047 17.8153 20.5319 19.0264C20.5955 19.2863 20.6315 19.5641 20.6315 19.8525C20.6314 21.3146 19.7477 22.4998 18.6579 22.5C18.0109 22.5 17.4387 22.0809 17.0788 21.4355C16.7189 22.081 16.1468 22.5 15.4997 22.5C14.7897 22.5 14.1697 21.996 13.822 21.2412C13.4742 21.9959 12.8542 22.5 12.1442 22.5C11.0544 22.4999 10.1708 21.3146 10.1706 19.8525C10.1706 19.514 10.219 19.1902 10.3054 18.8926C8.88496 17.6881 7.99984 15.9959 7.99969 14.1201C7.99969 10.4642 11.3576 7.5 15.4997 7.5ZM15.4011 10.8906C12.9485 10.8906 10.9606 12.3949 10.9606 14.251C10.9607 16.107 12.9485 17.6113 15.4011 17.6113C17.8536 17.6113 19.8414 16.107 19.8415 14.251C19.8415 12.3949 17.8536 10.8906 15.4011 10.8906Z" fill="white"/>
<defs>
<linearGradient id="paint0_linear_329_121" x1="0.499695" y1="0" x2="0.499695" y2="30" gradientUnits="userSpaceOnUse">
<stop stop-color="#A864C7"/>
<stop offset="1" stop-color="#C261D4"/>
</linearGradient>
</defs>
</svg>
