<svg width="30" height="31" viewBox="0 0 30 31" fill="none" xmlns="http://www.w3.org/2000/svg">
<rect x="-0.000305176" y="0.79657" width="30" height="30" rx="15" fill="url(#paint0_linear_329_122)"/>
<path fill-rule="evenodd" clip-rule="evenodd" d="M20.4742 20.4227C20.4742 20.4227 18.7089 21.8385 15.196 21.2526C12.5308 20.8081 11.1093 17.8701 11.1093 16.2909C11.1093 12.5467 13.8805 11.6947 15.754 11.6947C17.6275 11.6947 18.8497 13.5212 18.8497 14.9355C18.8497 16.3497 17.8494 17.5866 16.2928 17.5866C14.7363 17.5866 14.2752 16.4939 14.2752 15.4892C14.2752 14.4845 15.0881 14.1305 15.8294 14.1305C16.5707 14.1305 16.8246 14.7634 16.8246 15.3074C16.8246 15.8514 16.4025 16.0462 16.0505 16.0462C15.6985 16.0462 15.562 15.9579 15.5289 15.6819C15.4958 15.4059 15.7145 14.8708 15.196 14.7888C14.6774 14.7069 14.6169 15.5215 14.6169 15.6819C14.6169 15.8423 14.7812 17.1687 16.2928 17.1416C17.8045 17.1146 18.5217 15.9459 18.3133 14.7888C18.1048 13.6318 16.9819 12.4023 15.0111 12.6507C13.0404 12.8991 12.2357 14.8904 12.5904 17.0184C12.9451 19.1464 15.4944 20.3794 17.4989 19.9358C19.5033 19.4922 21.4997 18.0411 21.4997 14.3619C21.4997 10.6827 18.3133 8.47117 14.5137 8.83565C10.7142 9.20012 8.35557 12.5219 8.50654 16.5132C8.65751 20.5044 12.4447 22.6781 15.6472 22.7902C18.8497 22.9022 20.8129 21.0484 20.8129 21.0484C20.8129 21.0484 21.2544 20.6547 21.0813 20.3472C20.9082 20.0398 20.4742 20.4227 20.4742 20.4227Z" fill="white"/>
<defs>
<linearGradient id="paint0_linear_329_122" x1="-0.000305176" y1="0.79657" x2="-0.000305176" y2="30.7966" gradientUnits="userSpaceOnUse">
<stop stop-color="#F66F71"/>
<stop offset="1" stop-color="#FE9F92"/>
</linearGradient>
</defs>
</svg>
