<svg width="31" height="31" viewBox="0 0 31 31" fill="none" xmlns="http://www.w3.org/2000/svg">
<rect x="0.539703" y="0.5" width="30" height="30" rx="15" fill="url(#paint0_linear_329_123)"/>
<path d="M18.5329 16.5303C18.6166 16.473 18.7312 16.4949 18.7878 16.5791L20.0797 18.501C20.1348 18.5829 20.115 18.6944 20.0348 18.752L16.279 21.4463C16.2316 21.4802 16.1702 21.4888 16.1149 21.4707L12.8669 20.4072L18.5329 16.5303ZM18.944 10.5254C19.0553 10.5256 19.1409 10.6242 19.1247 10.7344L18.4342 15.3633C18.4267 15.413 18.3994 15.4577 18.3581 15.4863L11.6715 20.1025C11.6247 20.1347 11.5654 20.1427 11.5114 20.125L8.66568 19.1953C8.59063 19.1708 8.53976 19.1004 8.5397 19.0215V16.0986C8.5397 16.0561 8.55453 16.0142 8.5817 15.9814L13.0504 10.5908C13.0851 10.5491 13.1368 10.5254 13.1911 10.5254H18.944ZM20.3952 10.5C20.4747 10.5002 20.546 10.5521 20.57 10.6279L22.5016 16.7432C22.5245 16.8158 22.5 16.8954 22.4401 16.9424L21.2008 17.9102C21.1197 17.9735 21.002 17.957 20.9411 17.874L19.3932 15.7656C19.364 15.7258 19.3517 15.6757 19.36 15.627L20.2135 10.6514C20.2287 10.5639 20.3063 10.5 20.3952 10.5Z" fill="white"/>
<defs>
<linearGradient id="paint0_linear_329_123" x1="0.539703" y1="0.5" x2="0.539703" y2="30.5" gradientUnits="userSpaceOnUse">
<stop stop-color="#C5B489"/>
<stop offset="1" stop-color="#D7CD90"/>
</linearGradient>
</defs>
</svg>
