<svg width="31" height="30" viewBox="0 0 31 30" fill="none" xmlns="http://www.w3.org/2000/svg">
<rect x="0.601013" width="30" height="30" rx="15" fill="url(#paint0_linear_329_115)"/>
<path d="M19.1782 8.5C19.311 8.5 19.4338 8.57069 19.5004 8.68555L23.0493 14.8174C23.116 14.9329 23.1161 15.075 23.0493 15.1904L19.5004 21.3145C19.4338 21.4293 19.3109 21.5 19.1782 21.5H12.062C11.9297 21.5 11.8075 21.4295 11.7407 21.3154L8.15179 15.1914C8.084 15.0753 8.08392 14.9315 8.15179 14.8154L11.7407 8.68457C11.8075 8.5704 11.9297 8.50001 12.062 8.5H19.1782ZM15.601 11.5C13.668 11.5 12.101 13.067 12.101 15C12.101 16.933 13.668 18.5 15.601 18.5C17.534 18.5 19.101 16.933 19.101 15C19.101 13.067 17.534 11.5 15.601 11.5Z" fill="white"/>
<defs>
<linearGradient id="paint0_linear_329_115" x1="0.601013" y1="0" x2="0.601013" y2="30" gradientUnits="userSpaceOnUse">
<stop stop-color="#52869D"/>
<stop offset="1" stop-color="#58A6AA"/>
</linearGradient>
</defs>
</svg>
